<?xml version="1.0" encoding="iso-8859-1"?>
<!-- Generator: Adobe Illustrator 24.3.0, SVG Export Plug-In . SVG Version: 6.00 Build 0)  -->
<svg version="1.1" id="Layer_1" xmlns="http://www.w3.org/2000/svg" xmlns:xlink="http://www.w3.org/1999/xlink" x="0px" y="0px"
	 viewBox="0 0 1920 1080" style="enable-background:new 0 0 1920 1080;" xml:space="preserve">
<g>
	<path style="fill:#006837;" d="M958.104,287.278c33.363,0,65.726,6.669,96.19,19.823c29.436,12.71,55.876,30.908,78.584,54.089
		c22.717,23.19,40.553,50.195,53.012,80.265c12.901,31.137,19.443,64.218,19.443,98.323s-6.542,67.186-19.443,98.323
		c-12.459,30.07-30.295,57.075-53.012,80.265c-22.709,23.181-49.148,41.379-78.584,54.089
		c-30.464,13.153-62.827,19.823-96.19,19.823s-65.726-6.669-96.19-19.823c-29.436-12.71-55.876-30.908-78.584-54.089
		c-22.717-23.19-40.553-50.195-53.012-80.265c-12.901-31.137-19.443-64.218-19.443-98.323s6.542-67.186,19.443-98.323
		c12.459-30.07,30.295-57.075,53.012-80.265c22.709-23.181,49.148-41.379,78.584-54.089
		C892.378,293.947,924.741,287.278,958.104,287.278 M958.104,281.278c-139.855,0-253.23,115.734-253.23,258.5
		s113.375,258.5,253.23,258.5s253.23-115.734,253.23-258.5S1097.959,281.278,958.104,281.278L958.104,281.278z"/>
</g>
<path style="fill:none;stroke:#006837;stroke-width:4;stroke-miterlimit:10;" d="M1173.501,486.495l24.487,4.957l0.556,14.136
	l12.359,26.801l0.803,20.428l1.135,28.864l-17.07,18.536l0.434,11.05l-5.216,16.553c0,0,0.916,22.539-8.633,22.324
	c-3.816-0.086-13.401,24.533-13.264,28.019c0.137,3.486-27.531,12.858-27.669,9.372c-0.137-3.486,30.693-55.176,30.693-55.176
	l4.081-21.534l-0.659-16.769c-19.715-1.378-19.715-1.378-19.715-1.378l-17.74,9.887c-15.031-5.062-8.107,3.385-15.031-5.062
	s-6.924-8.447-6.924-8.447l-12.3-3.501c0,0,4.091-0.961-2.941-14.451c-7.451-14.293-7.451-14.293-7.451-14.293l0,0l-0.461-11.73
	c0,0-0.19-4.828-0.31-7.878c-0.12-3.05-0.43-10.946-0.43-10.946l-0.247-6.275l-0.296-7.53l11.206-8.399c0,0-3.394-2.481-0.274-6.972
	s3.12-4.491,3.12-4.491l8.208-11.709l21.086-6.941l14.146-5.307c6.951,6.194,6.951,6.194,6.951,6.194"/>
<path style="fill:none;stroke:#000000;stroke-miterlimit:10;" d="M770.1,380.601"/>
<path style="fill:none;stroke:#006837;stroke-width:5;stroke-miterlimit:10;" d="M794.826,349.373l-2.558,3.47l-2.558,1.735
	l-4.263,1.735l-3.41,2.602l-3.411,2.602l-2.558,3.47v2.134l-1.705,1.336l-1.705,4.337h2.643l0.767,1.735l-1.705,1.735l-4.263,2.099
	l-5.116,3.973l-1.705,1.735v1.475h2.814l1.449-2.342l2.558-2.602h2.132l2.132-2.602l2.558-0.867l2.132-2.516l2.984-0.087v-2.602
	l1.705-1.735l2.558-0.867l1.893-1.865h1.842l-2.029,2.732l-2.558,1.735l5.968-1.735l3.411-1.197v-1.535l2.558,1.865l2.558,1.735
	l1.705,0.867v3.314v3.123l1.893,2.238l1.518,3.47v3.036l-1.705,3.036l1.705,3.21v2.811v1.561v2.498v2.811v1.561l2.558,2.03v2.342
	h-2.541c0,0-0.87,1.128-0.017,1.995c0.853,0.867,2.558,3.001,2.558,3.001l1.705,3.071l2.558,4.337v2.897l-2.558,4.042l-0.853,2.602
	l-0.853-4.337l0.853-2.602v-2.602l-2.558-3.47l-1.705-2.602l-2.558-0.867v1.735l2.558,4.337l1.705,4.337v2.602l-0.853,1.735
	l-0.853,3.47l-0.853,4.337l-1.705,3.47l-2.558,3.47l-0.853,3.47c0,0-0.853,2.602-0.853,3.47c0,0.867-1.705,5.205-1.705,5.205v4.337
	v5.205l0.853,4.337l0.853,5.205v3.47l1.705,4.337l1.705,2.602l1.705,1.735l2.558,1.735l1.705,2.602l0.853,6.072l0.853,5.205
	l1.705,3.47l1.705,3.695v1.631v2.498v1.874v3.123l3.41,2.793l2.063,2.169v3.782v2.498l3.905,1.96l3.411,3.47l-1.705-4.337
	l-1.705-2.602l-1.705-2.602l0.256-2.169l0.597-3.036l-1.705-2.602l-2.558-4.337v-1.735l-2.558-2.602l-0.853-4.337v-2.602v-2.602
	l0.853-1.735l3.41,0.867l0.853,4.337l0.853,4.337l1.705,3.47l1.705,3.47l2.558,3.21v2.186l1.705,2.411c0,0,1.739,0,1.722,1.301
	c-0.017,1.301,2.541,3.904,2.541,3.904l2.558,4.337c0,0,1.978,1.735,2.268,3.47c0.29,1.735,2.848,5.205,2.848,5.205
	s-0.853,2.88,0,4.042c0.853,1.162,0,4.493,0,4.997s3.411,4.84,3.411,4.84l3.41,2.602c0,0,1.705,2.602,3.411,2.602
	s2.575,2.169,2.575,2.169l4.246,2.169l5.116,1.735l4.263,1.735l5.116,2.602l2.558-2.602h3.411l5.065,2.602l4.314,6.072l3.41,1.735
	c0,0,5.116,0.867,5.968,1.735c0.853,0.867,4.417,0,4.417,0l1.842,0.385v2.72l2.268,2.099l1.705,1.735h2.166h2.456v2.411
	l-2.149,1.492l0.085,2.169l1.705,1.735l0.358-1.96l1.842,1.96l1.211,1.735l2.558,1.735v1.752h2.984h3.069l3.325,1.718
	c0,0,0,0.867,0.853,1.735c0.853,0.867,3.411,1.735,3.411,1.735v-2.689v-2.498l3.41-1.752l3.411,0.867v3.383v2.689l2.558,2.602v2.828
	v1.874v3.747l1.705,2.828l-2.558,1.735l-0.853,1.735h-1.756l-1.654,1.735l0.853,2.602v1.735h-3.189l-1.927,1.735l-0.853,3.47
	c0,0-0.853,1.735-0.853,2.602s-1.705,3.47-1.705,3.47l0.853,1.735h2.643h1.535l-0.767,3.47h-2.609l-1.654,2.602l-1.705,3.47
	l1.705,1.735l0.853,2.602h2.029l3.086,3.47l1.705,3.47l2.558,2.602l2.558,5.205l1.705,5.014l3.837,4.06v4.372l3.837,3.904
	l3.411,1.735l5.116,2.602l2.558,1.735l3.41,3.47v2.481v4.372v3.123l-0.853,3.036l-0.853,5.205v2.602l-0.853,1.735l-0.853,4.337
	v2.602l-0.853,2.602v4.337l-0.853,2.602v3.47l-1.705,1.735l-0.853,1.735v2.602l-0.853,1.735l-3.411,1.735v4.337v1.735v4.337
	l0.853,2.602v1.735l0.853,0.867l-1.143,2.169l-1.415,3.904l-3.411,1.735v1.735l0.853,2.602l-1.705,1.735l-1.279,2.134l2.984,2.203
	l0.853,2.602l1.705,1.735h2.336h1.842c0,0,0.085,0,0.938,0.867c0.853,0.867,5.508,0,5.508,0l4.604,0.385h2.763l-6.054-2.12
	l-2.558-2.602v-2.602l1.705-0.867l1.705-1.735l1.705-1.735l3.496-0.815v-2.498l-2.643-1.024l1.705-2.602l2.78-3.036l2.456-1.77
	v-2.498l1.586-3.105l3.411,0.867l3.41-0.867v-2.828l1.705-2.377h3.411l3.411-0.867h4.263l2.558-3.47l3.411-1.735v-2.481
	l-1.705-0.989l-2.558-1.735l1.705-1.735l4.263,0.867h3.411l1.705,0.867l3.411-3.47l1.705-2.602l3.411-2.602l2.558-2.602l3.411-2.602
	l2.558-1.735l3.411-3.47l1.705-2.602l0.853-3.47v-3.348l1.705-1.856l3.411-2.602l3.411-0.867l2.558-0.867l2.558-1.735l2.558-1.735
	l2.558-0.867l5.116-1.735l2.558-3.47l0.853-3.47l1.705-1.735l1.705-0.867l1.705-3.47l1.705-2.602l1.705-2.602l1.705-2.602v-4.702
	v-4.372l2.558-3.071l2.558-2.602l1.705-3.47l1.705-1.735l3.41-3.47l1.705-1.735l2.558-4.337v-4.563v-3.435v-2.811
	c0,0-2.558,0.399-3.411,0.399s-2.558-2.602-3.411-2.602c-0.853,0-3.411-2.602-3.411-2.602l-1.705-0.867l-4.263-0.867l-2.558,0.867
	h-2.558h-4.263c0,0-0.853,0.867-1.705,1.735c-0.853,0.867-0.853-2.602-0.853-2.602s0-1.735-0.853-1.735
	c-0.853,0-2.558-1.735-2.558-1.735l-4.263-0.867l-1.705,0.867l-2.558,2.602c0,0-0.853,1.735-1.705,1.735s-5.116,0-5.116,0
	l-1.705-2.602l-0.853-3.47l2.558-2.602l2.558-2.602l-1.705-5.205l-1.705-0.867l-1.705-4.337l-2.558-2.602l-4.263-2.602l-3.411-0.867
	h-4.263h-3.411l-3.411-1.735l-2.558-0.867l-1.705-2.602l-2.558-2.602l-3.411-0.867h-3.411l1.705-3.47l-2.558-1.735l-3.411-0.867
	l-2.097-2.169l-2.166,1.301l-3.411,0.867h-3.41l-2.677-2.169h-1.842l-4.007,1.301l-3.052-1.301l0.495-2.169l-1.705-0.867h-2.558
	l-3.598,3.036h-3.069l1.552-5.638l-2.558-1.735l-3.411,4.337l-2.558,0.867l-1.62,2.169h-4.297l-1.756,1.301l-0.853,1.735v1.735
	l-1.279,1.856v1.561l-3.837,0.919l-2.558-1.735l-1.705-1.735l-3.411-0.867l-5.116,1.735l-4.263,0.121l-3.411-0.989
	c0,0-1.705-1.735-2.558-2.602c-0.853-0.867-1.791-3.036-1.791-3.036l-0.767-3.036c0,0-0.853-2.602-0.853-3.47
	c0-0.867,1.705-2.602,1.705-2.602l0.853-1.735v-4.337l-0.853-2.602l-3.411-1.735c0,0-1.705-0.867-2.558-0.867
	c-0.853,0-4.263,0-4.263,0l-5.968,0.867l-2.558-0.867h-0.853l1.108-1.542l1.449-4.53l1.006-2.169l0.699-3.904l0.853-1.735
	l0.853-2.602l-0.853-2.602l1.705-1.735v-2.602h-2.558l-2.558,0.867l-2.558,0.867h-1.705l-1.705,0.867l-0.853,2.602v1.735
	l-0.853,2.602l-1.705,1.735l-1.705,0.867h-2.558h-1.705l-2.558-0.867l-1.705,1.735h-2.558l-0.853-1.735h-1.705l-2.558-2.602
	l-1.705-3.47l-2.558-6.072l-1.705-3.47l0.853-6.072v-4.337l1.705-2.602v-4.337l-1.211-1.301l1.211-3.036l0.853-3.47l2.558-0.867
	l3.411-1.735l2.558-2.602l2.558-0.867l1.705,0.867l1.705-2.602h2.558l4.263,1.735l1.705,0.867h1.705l2.558-0.867l-1.705-2.602
	l1.705-0.867l3.411,0.867h2.558l2.558-0.867l3.41,0.867l2.558,0.867l2.558,1.735l1.705,0.867l2.558-1.735l1.705,0.867v2.602
	l1.705,2.602v3.47l0.853,1.735l1.245,2.169l1.313,3.158l1.705,2.481l2.558,2.602l1.705-3.47l0.085-4.771l-0.085-3.904l-1.705-4.337
	l-2.558-3.47l-1.705-3.869v-3.435l3.41-2.238l3.411-3.47l3.411-3.47l1.705-1.735l2.558-1.735l0.853-5.205
	c0,0,0.853,0.867,1.705,1.735c0.853,0.867,2.558-1.735,2.558-1.735l1.279-3.071v-3.747v-3.435v-3.123l2.984-1.371l2.558-3.47
	l0.853-4.337l1.705-3.47l4.263-0.867l1.705-1.735l2.558,0.867l0.853-3.47v-3.47l2.558-3.47l3.411-1.735l3.411-0.867l0.853-2.602
	h2.558l3.411-0.867v-1.735l2.558,2.602v0.867l-3.41,1.735l-1.705,1.735l1.705,2.602l3.41-1.735l2.558-2.602l3.41-0.867l4.263-1.735
	l2.558-2.602l-0.853-2.602v-2.602l-1.705,1.735l-1.705,1.735l-2.558,0.867h-5.116l-2.558-1.735l-1.705-4.337v-2.602l0.853-3.47
	l-3.411-1.735l-4.263,1.735l-2.558,1.735l-2.558,1.735l-5.968,3.47l0.853-3.47l3.411-2.602l2.558-1.735v-0.867l3.411-3.47
	l1.705-1.735l5.116-0.867h5.116h5.968l5.116-1.735l3.411-2.602l2.558-2.602l2.558-2.602l-0.853-4.337l-2.558-0.867l-3.411-1.735
	l-3.41,0.867l-2.558,1.735l-1.705-1.735l2.558-3.47h3.41l-2.558-2.602h-2.558l-1.705-1.735l-3.411-1.735l-1.705-1.735l-0.853-2.602
	l-0.853-3.47l-0.853-1.735v-1.735h-2.558l-1.705-1.735l0.87-1.735l-1.722-1.735l-1.705-0.867l-0.256,2.602l-0.597,2.602
	l-1.705,1.735l-1.705,0.867l-2.558,0.867l-1.705-0.867v-1.735c0,0-2.558-0.867-2.558,0c0,0.867,0,0.867,0,0.867l-1.705-0.867
	c0,0-0.853-0.867,0-1.735c0.853-0.867,0.853-0.867,0.853-0.867l0.631-0.867l0.222-1.735l-0.853-1.735l-0.853-1.735v-1.735
	c0,0-1.705,0-2.558,0s-0.853,0-0.853,0h-0.853l-0.853-1.735l-0.853-1.735h-1.705h-0.853l-2.558-1.735l-0.853,0.867l-2.132,0.295
	l-2.984-1.162h-1.705h-0.853c0,1.735,0,1.735,0,1.735l1.705,1.735v1.735l-0.853,0.867v1.735c0,0-0.853,0.867,0,1.735
	c0.853,0.867,0.853,0.867,0.853,0.867l-0.87,1.735h-1.842l-0.699,1.735c0,0,0,1.735,0.853,1.735s0.853,0,0.853,0
	s0,1.735,1.705,2.602s2.558,2.602,2.558,2.602v1.735l-0.853,1.735c-0.853,2.602-0.853,2.602-0.853,2.602s0,0.867-0.853,1.735
	c-0.853,0.867,1.705-0.867-0.853,0.867c-2.558,1.735-2.558,1.735-2.558,1.735l-2.558,0.867l-0.853,1.735c0,0-0.853,1.735,0,2.602
	c0.853,0.867,0.853,0.867,0.853,0.867l0.853,2.602l1.705,0.867v1.735v2.602c0,0-0.853-0.867-1.705,0.867
	c-0.853,1.735,0.853,1.735-0.853,1.735s-1.705,0-1.705,0s-2.558-0.867-3.41-0.867c-0.853,0-1.705-1.735-1.705-1.735
	s0.853-1.735,0-2.602c-0.853-0.867,0,0.867-0.853-0.867c-0.853-1.735-1.705-0.867-1.705-2.602s-0.853,0,0-1.735
	c0.853-1.735,0.853,0,0.853-1.735s0,0,0-1.735c0-1.735,0-1.735,0-1.735l-2.558-0.017l-1.705-0.85c0,0-0.853,0-1.705,0
	c-0.853,0,0.853,0.867-0.853,0c-1.705-0.867,0,0.867-1.705-0.867c-1.705-1.735-1.705-1.735-1.705-1.735s-1.705-1.735-2.558-0.867
	c-0.853,0.867,0.853,2.602-0.853,0.867s-1.705-1.735-1.705-1.735s-0.853-0.867-1.705-1.735c-0.853-0.867-0.853-0.867-0.853-0.867
	l-2.558-0.867v-1.735c0,0-0.853,0-1.705,0c-0.853,0,0.853-0.867-0.853,0c-1.705,0.867-3.41,0.867-3.41,0.867h-1.705v-3.47v-1.735
	v-1.735l-3.411-0.867l0.051-2.602l0.801-1.735l0.853-1.735l1.705-2.602v-1.735v-2.602l2.558-0.867l1.705-1.735l1.705-1.735
	c1.705-0.867,3.41-1.735,3.41-1.735v-2.602c0,0-2.899-0.672-3.616-0.467c-0.794,0.227-1.499,0.467-1.499,0.467
	s5.968-1.735,6.821-1.735c0.853,0,1.705,0,1.705,0l1.705-1.735h1.705l1.705-0.867c0,0,3.41-0.867,0.853-1.735
	c-2.558-0.867-0.853,0-2.558-0.867c-1.705-0.867-1.705-0.867-1.705-0.867s-0.853,0,0-0.867s0.853-0.867,2.558-0.867
	s-0.853,0,1.705,0s2.558,0,2.558,0s1.705,0,2.558-0.867c0.853-0.867,0.853-0.867,0.853-0.867s-0.853-0.867,0.853-0.867
	c1.705,0,1.705,0,1.705,0h1.586l1.825-1.735l1.705-1.735c0,0,0.853,0.867,0.853-0.867c0-1.735,0-1.735,0-1.735l1.705-2.602
	c-1.705-1.735-3.41-2.602-3.41-2.602s0-1.735-1.705-0.867c-1.705,0.867-2.558,1.735-2.558,2.602s-1.705,2.932-1.705,2.932
	s0.853,2.724,0,2.498c-0.853-0.226,1.705-0.226-0.853-0.226s-2.558,1.735-2.558,0c0-1.735,0,0,0-1.735c0-1.735,4.263-1.735,0-1.735
	s-4.263,0-4.263,0s-0.853,1.735-0.853-0.867c0-2.602,0-2.602,0-2.602l-0.767-1.11c0,0-0.085-1.492-0.085-3.227s0-2.602-0.853-3.47
	c-0.853-0.867-0.853-0.867-0.853-0.867h-1.586c0,0-1.825,1.735-1.825,3.47c0,1.735,0,4.337,0,4.337s0,0,0,1.735
	c0,1.735,2.558,0.867,0,1.735c-2.558,0.867-2.558,0.867-2.558,0.867l-1.705,1.735c0,0,1.705,1.735,0.853,1.735
	c-0.853,0-2.558,0-2.558,0l-2.558-0.867c-2.558-0.867-5.116,0.867-5.116,0.867s-0.853,0-1.705,0c-0.853,0-1.705,0-2.558,0
	c-0.853,0-0.853,0-0.853,0s-1.705-0.867-2.558-1.735c-0.853-0.867-0.853-0.867-0.853-0.867s-0.853-0.867-1.705-0.867
	c-0.853,0-2.558,0.867-2.558,0.867s1.705,1.735,0,2.602c-1.705,0.867-1.705,2.602-1.705,2.602s-0.853,0-1.705,0
	c-0.853,0-2.558,1.735-2.558,0c0-1.735,5.968-5.205,0.853-3.47c-5.116,1.735-2.558,0.867-5.116,0s-2.558-0.867-2.558-0.867
	l-1.705-1.735l0.853-3.47l-4.263-1.735c0,0,0.853-0.867-1.705-0.867s-2.558,0-4.263,0s-1.705,0-1.705,0s-1.705-0.867-2.558-1.735
	c-0.853-0.867-1.705-0.867-2.558-0.867c-0.853,0,0.853-0.867-0.853,0c-1.705,0.867,3.411-0.867-1.705,0.867
	c-5.116,1.735-2.558,0.867-5.116,1.735c-2.558,0.867-2.558,0-4.263,0.867c-1.705,0.867-2.558,2.602-3.41,0
	c-0.853-2.602-2.558-5.205-2.558-5.205l-2.029-1.735h-1.535l-1.552-1.735h-2.439l-1.825,2.602c0,0-1.705,0.867-2.558,0.867
	c-0.853,0,2.558,0-0.853,0s-3.411,0-3.411,0s-1.705-1.735-1.705,0s2.558,0,0,1.735c-2.558,1.735-2.558,1.735-2.558,1.735
	s-0.853,0.867-1.705,0.867c-0.853,0-2.558,0-2.558,0c-1.705,0.867-2.558,2.602-2.558,2.602l-1.705,0.867v1.735
	c0,0,0,0.867-0.853,2.602c-0.853,1.735,0.853,1.735-0.853,1.735s-4.263,0-4.263,0s-1.705,0-2.558,0
	c-0.853,0-2.558,0.867-2.558,0.867l-2.558,2.602L794.826,349.373z"/>
<path style="fill:none;stroke:#006837;stroke-width:5;stroke-miterlimit:10;" d="M1073.384,313.457h-15.24l7.62,7.202l7.62,5.173
	l8.117,10.076l7.103,11.674l7.102,8.082h12.115v6.376l-6.027-14.458l-7.123-9.833l-6.078-5.451l22.332,14.386l14.712,21.553h-10.512
	l1.887,6.286c7.102,5.388,11.161,8.909,8.624,12.088c-2.537,3.179,0,10.345,0,10.345s-8.624,1.599,0,12.932
	c8.624,11.333,8.624,11.333,8.624,11.333v5.478l-8.624,5.173c0,0-5.581,9.573,0,12.932c5.58,3.359-1.522-2.03,5.58,3.359
	s7.102,5.388,7.102,5.388h7.488v-10.04c5.702-6.125,0-11.639,0-11.639l2.534-6.466c10.27-2.389,10.27-2.389,10.27-2.389
	s-9.132-18.607,0-7.957c9.132,10.651,16.234,16.937,16.234,16.937v10.22l6.027,3.88v-7.759l-13.15-28.45l-7.305-10.345
	l-11.021-16.039l-23.76-28.803l-20.739-18.523L1073.384,313.457z"/>
<path style="fill:none;stroke:#006837;stroke-width:5;stroke-miterlimit:10;" d="M976.436,320.747l5.747,6.94
	c0,0,6.19,3.47,6.19,7.807s0,4.337,0,4.337s-5.968,10.618,0,13.55s11.084,7.269,11.084,7.269s-11.937,6.766,0,7.72
	s11.937,0.954,11.937,0.954h7.622c0.051,0,0.051-9.542,0.051-9.542v-5.153v-7.495l6.088-6.436l7.554-6.94
	c-12.789-11.277-12.789-11.277-12.789-11.277s5.968,6.94,0,0c-5.968-6.94-5.968-6.94-5.968-6.94s1.671,2.602-5.985-3.47
	c-7.657-6.072-7.657-6.072-7.657-6.072s-2.558,5.205-6.395,0c-3.837-5.205-3.837-5.205-3.837-5.205s0.853-6.072-3.411-6.072
	s-4.263,0-4.263,0h-8.816h-7.367H955.12l-11.51,8.692C949.152,308.602,976.436,320.747,976.436,320.747z"/>
<path style="fill:none;stroke:#006837;stroke-width:4;stroke-miterlimit:10;" d="M929.388,323.401c0,0,7.759-0.815,7.367,0
	c-0.392,0.815,6.855,4.285,6.855,4.285l6.65,4.337c14.239,10.409,14.239,10.409,14.239,10.409h-8.1c0,0,7.247,4.754,8.1,8.449
	c0.853,3.695,0.853,3.695,0.853,3.695s10.232,6.419,0,7.547s-13.864,0-13.864,0l-5.178-6.246
	c-5.684-19.518-5.684-19.518-5.684-19.518l0,0l-7.554-4.337c-11.204-0.867-11.204-0.867-11.204-0.867l0,0L929.388,323.401z"/>
</svg>
